<?xml version="1.0" encoding="UTF-8" standalone="no"?>
<svg
   version="1.1"
   width="256px"
   height="256px"
   style="shape-rendering:geometricPrecision; text-rendering:geometricPrecision; image-rendering:optimizeQuality; fill-rule:evenodd; clip-rule:evenodd"
   id="svg41"
   sodipodi:docname="Icon.svg"
   inkscape:version="1.3.2 (091e20e, 2023-11-25, custom)"
   xmlns:inkscape="http://www.inkscape.org/namespaces/inkscape"
   xmlns:sodipodi="http://sodipodi.sourceforge.net/DTD/sodipodi-0.dtd"
   xmlns="http://www.w3.org/2000/svg"
   xmlns:svg="http://www.w3.org/2000/svg">
  <defs
     id="defs41" />
  <sodipodi:namedview
     id="namedview41"
     pagecolor="#ffffff"
     bordercolor="#000000"
     borderopacity="0.25"
     inkscape:showpageshadow="2"
     inkscape:pageopacity="0.0"
     inkscape:pagecheckerboard="0"
     inkscape:deskcolor="#d1d1d1"
     inkscape:zoom="6.859375"
     inkscape:cx="127.92711"
     inkscape:cy="128"
     inkscape:window-width="3840"
     inkscape:window-height="2054"
     inkscape:window-x="3829"
     inkscape:window-y="-11"
     inkscape:window-maximized="1"
     inkscape:current-layer="svg41" />
  <g
     id="g2">
    <path
       style="opacity:1"
       fill="#4c4765"
       d="M 214.5,70.5 C 214.631,71.2389 214.464,71.9056 214,72.5C 209.205,66.349 204.039,60.5156 198.5,55C 195.302,54.1515 192.469,52.6515 190,50.5C 189.033,53.9052 187.2,54.4052 184.5,52C 184.833,51.6667 185.167,51.3333 185.5,51C 183.652,49.482 182.152,47.6487 181,45.5C 179.644,46.3802 178.144,46.7135 176.5,46.5C 176.703,44.6096 176.037,43.1096 174.5,42C 175.167,41.6667 175.833,41.3333 176.5,41C 172.833,39.3333 169.167,37.6667 165.5,36C 166.993,34.8438 166.826,34.0104 165,33.5C 164.127,33.7355 163.293,34.0688 162.5,34.5C 159.787,32.1404 156.787,30.1404 153.5,28.5C 153.053,29.7569 151.719,30.7569 149.5,31.5C 147.372,30.4625 146.372,29.1292 146.5,27.5C 144.264,27.4165 141.93,27.7498 139.5,28.5C 137.096,27.9921 136.429,26.8255 137.5,25C 136.975,24.3076 136.308,23.8076 135.5,23.5C 135.446,24.5301 135.112,25.6967 134.5,27C 127.759,27.2191 121.259,27.0524 115,26.5C 111.405,26.7191 107.905,27.3858 104.5,28.5C 100.89,28.4206 97.2237,27.5873 93.5,26C 94.7112,25.1072 94.7112,24.2739 93.5,23.5C 92.1667,24.8333 90.8333,24.8333 89.5,23.5C 86.864,24.9705 84.364,26.6372 82,28.5C 81.5304,27.4232 81.6971,26.4232 82.5,25.5C 91.5863,18.6339 101.92,14.8006 113.5,14C 139.681,9.71064 163.015,15.7106 183.5,32C 195.968,43.2815 206.301,56.1149 214.5,70.5 Z"
       id="path2" />
  </g>
  <g
     id="g3">
    <path
       style="opacity:1"
       fill="#47425f"
       d="M 214.5,70.5 C 225.119,88.9699 230.453,108.97 230.5,130.5C 230.808,132.924 230.474,135.257 229.5,137.5C 228.05,136.345 227.05,134.845 226.5,133C 227,132.5 227.5,132 228,131.5C 228.667,126.5 228.667,121.5 228,116.5C 224.673,113.491 223.507,110.324 224.5,107C 223.767,103.449 222.767,99.949 221.5,96.5C 219.997,97.0522 218.331,97.0522 216.5,96.5C 216.227,94.549 216.893,93.049 218.5,92C 216.939,91.6824 215.772,90.8491 215,89.5C 213.935,91.3963 213.102,91.563 212.5,90C 214.646,86.838 214.646,83.838 212.5,81C 213.938,78.6337 213.438,78.1337 211,79.5C 209.249,77.5101 208.249,75.1768 208,72.5C 206.021,72.1228 204.188,70.7894 202.5,68.5C 202.193,69.8875 202.193,71.5542 202.5,73.5C 200.5,73.1667 198.5,72.8333 196.5,72.5C 196.506,75.5476 195.506,76.0476 193.5,74C 195.929,73.5488 196.096,72.7155 194,71.5C 192.601,71.5012 191.101,71.8346 189.5,72.5C 187.015,71.2099 184.848,70.2099 183,69.5C 183.242,71.1381 184.075,72.6381 185.5,74C 184.216,74.6838 183.049,74.5171 182,73.5C 181.751,74.624 181.251,75.624 180.5,76.5C 179.653,74.939 179.986,73.439 181.5,72C 178.73,68.6826 179.73,66.8493 184.5,66.5C 182.335,63.4725 180.001,61.3059 177.5,60C 177.905,59.0546 178.572,58.3879 179.5,58C 176.789,56.7394 174.622,54.906 173,52.5C 172.25,53.1258 171.416,53.6258 170.5,54C 173.066,55.6256 172.899,57.1256 170,58.5C 169.544,57.2559 170.044,56.4226 171.5,56C 170.552,55.5172 169.552,55.3505 168.5,55.5C 169.442,52.5804 170.776,49.9138 172.5,47.5C 170.488,48.0138 168.488,48.1805 166.5,48C 165.416,45.8103 166.083,44.1437 168.5,43C 165.911,41.6859 163.244,41.0192 160.5,41C 161.634,42.016 161.301,42.6827 159.5,43C 162.833,45 165.5,47.6667 167.5,51C 164.678,54.1717 163.511,53.6717 164,49.5C 162.933,48.8095 161.766,48.3095 160.5,48C 160.957,47.586 161.291,47.086 161.5,46.5C 160.01,45.1743 158.676,43.6743 157.5,42C 156.328,41.6466 155.162,41.8132 154,42.5C 152.108,42.2231 150.775,41.2231 150,39.5C 148.595,41.6509 146.761,43.3176 144.5,44.5C 141.972,43.5022 141.972,42.6689 144.5,42C 141.609,40.0762 139.276,37.5762 137.5,34.5C 136.031,36.3751 134.198,36.3751 132,34.5C 130.609,36.7151 128.943,36.7151 127,34.5C 126.029,35.1984 124.863,35.1984 123.5,34.5C 122.353,34.8178 121.519,35.4844 121,36.5C 120.676,34.4311 119.842,34.0977 118.5,35.5C 116.907,33.3397 115.24,33.173 113.5,35C 114.5,35.3333 115.5,35.6667 116.5,36C 114.369,36.5431 112.369,37.3764 110.5,38.5C 111.506,39.3957 111.506,40.0623 110.5,40.5C 107.163,39.8907 106.83,38.724 109.5,37C 106.698,36.9758 105.364,38.4758 105.5,41.5C 101.908,41.7843 98.7414,40.7843 96,38.5C 92.9222,40.111 91.2556,39.111 91,35.5C 90.6667,36.5 90.3333,37.5 90,38.5C 87.9114,38.2549 85.9114,38.2549 84,38.5C 79.7322,40.5892 75.5655,42.9226 71.5,45.5C 70.8076,44.9747 70.3076,44.3081 70,43.5C 68.0653,45.1022 65.8987,46.2689 63.5,47C 61.9777,48.9162 60.9777,51.0829 60.5,53.5C 59.1851,54.4756 57.8518,55.4756 56.5,56.5C 55.4826,53.972 54.3159,53.972 53,56.5C 52.5357,55.9056 52.369,55.2389 52.5,54.5C 58.9587,46.8711 65.6254,39.3711 72.5,32C 75.7196,29.5633 79.053,27.3967 82.5,25.5C 81.6971,26.4232 81.5304,27.4232 82,28.5C 84.364,26.6372 86.864,24.9705 89.5,23.5C 90.8333,24.8333 92.1667,24.8333 93.5,23.5C 94.7112,24.2739 94.7112,25.1072 93.5,26C 97.2237,27.5873 100.89,28.4206 104.5,28.5C 107.905,27.3858 111.405,26.7191 115,26.5C 121.259,27.0524 127.759,27.2191 134.5,27C 135.112,25.6967 135.446,24.5301 135.5,23.5C 136.308,23.8076 136.975,24.3076 137.5,25C 136.429,26.8255 137.096,27.9921 139.5,28.5C 141.93,27.7498 144.264,27.4165 146.5,27.5C 146.372,29.1292 147.372,30.4625 149.5,31.5C 151.719,30.7569 153.053,29.7569 153.5,28.5C 156.787,30.1404 159.787,32.1404 162.5,34.5C 163.293,34.0688 164.127,33.7355 165,33.5C 166.826,34.0104 166.993,34.8438 165.5,36C 169.167,37.6667 172.833,39.3333 176.5,41C 175.833,41.3333 175.167,41.6667 174.5,42C 176.037,43.1096 176.703,44.6096 176.5,46.5C 178.144,46.7135 179.644,46.3802 181,45.5C 182.152,47.6487 183.652,49.482 185.5,51C 185.167,51.3333 184.833,51.6667 184.5,52C 187.2,54.4052 189.033,53.9052 190,50.5C 192.469,52.6515 195.302,54.1515 198.5,55C 204.039,60.5156 209.205,66.349 214,72.5C 214.464,71.9056 214.631,71.2389 214.5,70.5 Z"
       id="path3" />
  </g>
  <g
     id="g4">
    <path
       style="opacity:1"
       fill="#433f5b"
       d="M 216.5,96.5 C 215.527,97.7914 214.527,97.7914 213.5,96.5C 211.181,98.8541 209.514,98.1874 208.5,94.5C 209.043,93.1362 209.21,91.8029 209,90.5C 208.333,89.1667 207.667,89.1667 207,90.5C 206.641,87.4557 205.974,87.1224 205,89.5C 204.667,88.8333 204.333,88.1667 204,87.5C 204.155,85.1893 204.155,82.856 204,80.5C 203.333,84.5 202.667,84.5 202,80.5C 200.933,81.1905 199.766,81.6905 198.5,82C 199.956,82.4226 200.456,83.2559 200,84.5C 199.667,84.1667 199.333,83.8333 199,83.5C 196.26,85.3597 193.76,85.3597 191.5,83.5C 189.434,86.2981 187.934,85.9648 187,82.5C 185.542,83.7468 184.042,83.7468 182.5,82.5C 181.833,83.1667 181.167,83.8333 180.5,84.5C 179.903,82.459 179.903,80.6256 180.5,79C 178.615,77.9121 176.615,77.0787 174.5,76.5C 171.056,77.1794 167.723,77.5127 164.5,77.5C 164.351,76.448 164.517,75.448 165,74.5C 165.914,75.6537 166.747,75.487 167.5,74C 165.118,70.7064 163.118,70.8731 161.5,74.5C 160.833,74.1667 160.167,73.8333 159.5,73.5C 158.001,71.8357 157.001,69.8357 156.5,67.5C 152.127,66.6371 148.127,67.6371 144.5,70.5C 143.77,69.0663 142.77,67.8996 141.5,67C 144.188,66.2177 145.188,64.7177 144.5,62.5C 141.727,61.5321 139.227,60.1988 137,58.5C 136.586,58.9574 136.086,59.2907 135.5,59.5C 133.511,57.165 131.178,56.4984 128.5,57.5C 120.079,51.1898 120.746,48.6898 130.5,50C 127.362,48.7556 124.028,48.089 120.5,48C 119.667,47.1667 118.833,46.3333 118,45.5C 116.055,47.9261 113.555,48.7595 110.5,48C 112.905,46.3854 112.905,45.7188 110.5,46C 109.167,47.3333 109.167,48.6667 110.5,50C 108.726,50.8808 108.06,52.0475 108.5,53.5C 107.719,52.2713 107.219,50.938 107,49.5C 106.282,50.4506 105.449,50.6172 104.5,50C 106.897,45.7882 106.063,45.6215 102,49.5C 100.632,48.0069 100.465,46.5069 101.5,45C 99.2729,44.879 97.4396,44.0456 96,42.5C 95.6924,43.3081 95.1924,43.9747 94.5,44.5C 91.8333,43.1667 89.1667,43.1667 86.5,44.5C 85.479,45.0016 85.3123,45.6683 86,46.5C 87.3033,47.1122 88.4699,47.4455 89.5,47.5C 86.6718,48.9585 83.6718,49.9585 80.5,50.5C 78.6195,50.0748 77.1195,49.0748 76,47.5C 74.3362,50.5205 71.6695,53.1872 68,55.5C 67.1667,54.5 66.3333,53.5 65.5,52.5C 63.9536,54.484 62.2869,54.8174 60.5,53.5C 60.9777,51.0829 61.9777,48.9162 63.5,47C 65.8987,46.2689 68.0653,45.1022 70,43.5C 70.3076,44.3081 70.8076,44.9747 71.5,45.5C 75.5655,42.9226 79.7322,40.5892 84,38.5C 85.9114,38.2549 87.9114,38.2549 90,38.5C 90.3333,37.5 90.6667,36.5 91,35.5C 91.2556,39.111 92.9222,40.111 96,38.5C 98.7414,40.7843 101.908,41.7843 105.5,41.5C 105.364,38.4758 106.698,36.9758 109.5,37C 106.83,38.724 107.163,39.8907 110.5,40.5C 111.506,40.0623 111.506,39.3957 110.5,38.5C 112.369,37.3764 114.369,36.5431 116.5,36C 115.5,35.6667 114.5,35.3333 113.5,35C 115.24,33.173 116.907,33.3397 118.5,35.5C 119.842,34.0977 120.676,34.4311 121,36.5C 121.519,35.4844 122.353,34.8178 123.5,34.5C 124.863,35.1984 126.029,35.1984 127,34.5C 128.943,36.7151 130.609,36.7151 132,34.5C 134.198,36.3751 136.031,36.3751 137.5,34.5C 139.276,37.5762 141.609,40.0762 144.5,42C 141.972,42.6689 141.972,43.5022 144.5,44.5C 146.761,43.3176 148.595,41.6509 150,39.5C 150.775,41.2231 152.108,42.2231 154,42.5C 155.162,41.8132 156.328,41.6466 157.5,42C 158.676,43.6743 160.01,45.1743 161.5,46.5C 161.291,47.086 160.957,47.586 160.5,48C 161.766,48.3095 162.933,48.8095 164,49.5C 163.511,53.6717 164.678,54.1717 167.5,51C 165.5,47.6667 162.833,45 159.5,43C 161.301,42.6827 161.634,42.016 160.5,41C 163.244,41.0192 165.911,41.6859 168.5,43C 166.083,44.1437 165.416,45.8103 166.5,48C 168.488,48.1805 170.488,48.0138 172.5,47.5C 170.776,49.9138 169.442,52.5804 168.5,55.5C 169.552,55.3505 170.552,55.5172 171.5,56C 170.044,56.4226 169.544,57.2559 170,58.5C 172.899,57.1256 173.066,55.6256 170.5,54C 171.416,53.6258 172.25,53.1258 173,52.5C 174.622,54.906 176.789,56.7394 179.5,58C 178.572,58.3879 177.905,59.0546 177.5,60C 180.001,61.3059 182.335,63.4725 184.5,66.5C 179.73,66.8493 178.73,68.6826 181.5,72C 179.986,73.439 179.653,74.939 180.5,76.5C 181.251,75.624 181.751,74.624 182,73.5C 183.049,74.5171 184.216,74.6838 185.5,74C 184.075,72.6381 183.242,71.1381 183,69.5C 184.848,70.2099 187.015,71.2099 189.5,72.5C 191.101,71.8346 192.601,71.5012 194,71.5C 196.096,72.7155 195.929,73.5488 193.5,74C 195.506,76.0476 196.506,75.5476 196.5,72.5C 198.5,72.8333 200.5,73.1667 202.5,73.5C 202.193,71.5542 202.193,69.8875 202.5,68.5C 204.188,70.7894 206.021,72.1228 208,72.5C 208.249,75.1768 209.249,77.5101 211,79.5C 213.438,78.1337 213.938,78.6337 212.5,81C 214.646,83.838 214.646,86.838 212.5,90C 213.102,91.563 213.935,91.3963 215,89.5C 215.772,90.8491 216.939,91.6824 218.5,92C 216.893,93.049 216.227,94.549 216.5,96.5 Z"
       id="path4" />
  </g>
  <g
     id="g5">
    <path
       style="opacity:1"
       fill="#3e3a55"
       d="M 159.5,73.5 C 159.062,73.4346 158.728,73.6012 158.5,74C 159.313,75.3139 160.313,76.4805 161.5,77.5C 158.762,78.4928 156.095,78.1594 153.5,76.5C 152.167,77.8333 150.833,77.8333 149.5,76.5C 148.5,77.1667 147.5,77.8333 146.5,78.5C 144.486,74.9697 141.819,74.1364 138.5,76C 139.624,76.2492 140.624,76.7492 141.5,77.5C 139.815,78.5092 138.482,78.0092 137.5,76C 137.645,75.228 137.978,74.5613 138.5,74C 136.018,69.8361 132.518,68.3361 128,69.5C 126.187,66.7978 124.354,66.4645 122.5,68.5C 121.713,67.7579 121.047,66.9246 120.5,66C 116.566,64.2096 112.566,62.7096 108.5,61.5C 107.55,64.0679 107.55,66.5679 108.5,69C 106.518,68.4063 104.684,67.2396 103,65.5C 102.493,66.9961 102.993,68.1627 104.5,69C 102.939,69.3176 101.772,70.1509 101,71.5C 99.6764,70.1198 98.3431,69.7865 97,70.5C 96.6667,69.8333 96.3333,69.1667 96,68.5C 94.6667,69.8333 93.3333,69.8333 92,68.5C 91.6667,69.1667 91.3333,69.8333 91,70.5C 90.5,69.3333 89.6667,68.5 88.5,68C 91.644,66.4838 91.8107,64.3171 89,61.5C 88.1495,64.6124 86.9828,64.9458 85.5,62.5C 84.2322,63.4279 82.8989,63.5946 81.5,63C 83.5598,61.5074 83.8932,59.6741 82.5,57.5C 80.9081,59.5619 79.0748,59.8952 77,58.5C 75.9326,59.1905 74.7659,59.6905 73.5,60C 74.3081,60.3076 74.9747,60.8076 75.5,61.5C 74.7261,62.7112 73.8928,62.7112 73,61.5C 72.6924,62.3081 72.1924,62.9747 71.5,63.5C 70.3044,63.1543 70.3044,62.6543 71.5,62C 69.8659,61.5065 68.1992,61.3398 66.5,61.5C 66.321,63.6056 65.321,65.2723 63.5,66.5C 62.8448,62.2931 61.0115,61.9598 58,65.5C 57.6667,64.5 57.3333,63.5 57,62.5C 54.8352,63.5827 52.8352,64.916 51,66.5C 50.0497,65.9777 49.2164,65.311 48.5,64.5C 47.7025,64.9569 47.3691,65.6236 47.5,66.5C 45.2107,70.1375 42.8773,73.8041 40.5,77.5C 39.7025,77.0431 39.3691,76.3764 39.5,75.5C 42.6479,67.7026 46.9813,60.7026 52.5,54.5C 52.369,55.2389 52.5357,55.9056 53,56.5C 54.3159,53.972 55.4826,53.972 56.5,56.5C 57.8518,55.4756 59.1851,54.4756 60.5,53.5C 62.2869,54.8174 63.9536,54.484 65.5,52.5C 66.3333,53.5 67.1667,54.5 68,55.5C 71.6695,53.1872 74.3362,50.5205 76,47.5C 77.1195,49.0748 78.6195,50.0748 80.5,50.5C 83.6718,49.9585 86.6718,48.9585 89.5,47.5C 88.4699,47.4455 87.3033,47.1122 86,46.5C 85.3123,45.6683 85.479,45.0016 86.5,44.5C 89.1667,43.1667 91.8333,43.1667 94.5,44.5C 95.1924,43.9747 95.6924,43.3081 96,42.5C 97.4396,44.0456 99.2729,44.879 101.5,45C 100.465,46.5069 100.632,48.0069 102,49.5C 106.063,45.6215 106.897,45.7882 104.5,50C 105.449,50.6172 106.282,50.4506 107,49.5C 107.219,50.938 107.719,52.2713 108.5,53.5C 108.06,52.0475 108.726,50.8808 110.5,50C 109.167,48.6667 109.167,47.3333 110.5,46C 112.905,45.7188 112.905,46.3854 110.5,48C 113.555,48.7595 116.055,47.9261 118,45.5C 118.833,46.3333 119.667,47.1667 120.5,48C 124.028,48.089 127.362,48.7556 130.5,50C 120.746,48.6898 120.079,51.1898 128.5,57.5C 131.178,56.4984 133.511,57.165 135.5,59.5C 136.086,59.2907 136.586,58.9574 137,58.5C 139.227,60.1988 141.727,61.5321 144.5,62.5C 145.188,64.7177 144.188,66.2177 141.5,67C 142.77,67.8996 143.77,69.0663 144.5,70.5C 148.127,67.6371 152.127,66.6371 156.5,67.5C 157.001,69.8357 158.001,71.8357 159.5,73.5 Z"
       id="path5" />
  </g>
  <g
     id="g6">
    <path
       style="opacity:1"
       fill="#322e48"
       d="M 47.5,66.5 C 48.9711,70.0073 50.3045,73.674 51.5,77.5C 55.1684,73.7197 59.5017,72.3864 64.5,73.5C 65.8333,72.5 67.1667,71.5 68.5,70.5C 70.2141,71.6085 70.8808,70.9418 70.5,68.5C 72.5841,69.2483 74.5841,69.2483 76.5,68.5C 76.2964,69.5294 76.7964,70.5294 78,71.5C 82.7252,68.7919 83.2252,69.2919 79.5,73C 82.9003,76.4893 85.7336,75.9893 88,71.5C 90.233,75.7937 93.3997,78.2937 97.5,79C 96.2941,80.0177 96.6274,80.5177 98.5,80.5C 99.1667,80.1667 99.8333,79.8333 100.5,79.5C 96.8592,76.5284 97.0259,74.1951 101,72.5C 101.06,75.7897 102.393,76.7897 105,75.5C 106.651,76.7424 108.485,77.5757 110.5,78C 109.631,79.4646 110.131,80.6313 112,81.5C 115.088,80.7464 115.254,79.5797 112.5,78C 113.025,77.3076 113.692,76.8076 114.5,76.5C 115.912,77.8064 117.579,78.6397 119.5,79C 117.109,80.3086 117.109,81.3086 119.5,82C 119.167,82.3333 118.833,82.6667 118.5,83C 120.199,83.3932 121.699,82.8932 123,81.5C 124.244,83.5764 126.077,84.5764 128.5,84.5C 128.244,86.7925 128.577,88.9592 129.5,91C 132.033,90.3889 134.7,89.8889 137.5,89.5C 137.64,91.1238 136.973,92.2904 135.5,93C 136.108,93.8699 136.941,94.3699 138,94.5C 139.098,93.6161 139.598,92.6161 139.5,91.5C 140.665,92.4911 141.832,93.4911 143,94.5C 143.772,94.3552 144.439,94.0219 145,93.5C 145.333,95.1667 145.667,96.8333 146,98.5C 146.667,99.8333 147.333,99.8333 148,98.5C 149.14,100.078 149.64,101.744 149.5,103.5C 150.325,104.386 151.325,104.719 152.5,104.5C 152.626,101.442 154.126,101.109 157,103.5C 157.167,103.833 157.333,104.167 157.5,104.5C 156.624,105.251 155.624,105.751 154.5,106C 155.598,106.77 155.598,107.603 154.5,108.5C 126.425,108.101 98.425,109.268 70.5,112C 68.5087,112.374 66.842,113.207 65.5,114.5C 53.08,121.33 47.4133,131.996 48.5,146.5C 48.1412,160.939 53.1412,173.106 63.5,183C 68.357,184.671 73.357,185.505 78.5,185.5C 97.3282,183.92 115.995,182.253 134.5,180.5C 145.478,181.317 156.478,182.65 167.5,184.5C 156.501,183.889 145.501,183.722 134.5,184C 135.406,185.699 135.739,187.533 135.5,189.5C 143.738,190.604 145.071,193.937 139.5,199.5C 141.044,200.622 142.377,200.289 143.5,198.5C 145.451,199.256 147.284,199.589 149,199.5C 151.685,197.95 154.352,196.284 157,194.5C 157.483,193.552 157.649,192.552 157.5,191.5C 159.903,191.607 161.736,190.607 163,188.5C 163.75,189.126 164.584,189.626 165.5,190C 164.837,194.21 166.837,196.71 171.5,197.5C 173.569,197.176 173.902,196.342 172.5,195C 173.257,193.488 174.257,192.154 175.5,191C 178.01,189.641 180.176,188.474 182,187.5C 183.218,189.019 184.718,190.186 186.5,191C 185.85,192.609 186.35,194.109 188,195.5C 188.333,195.167 188.667,194.833 189,194.5C 191.833,195.999 193.499,198.333 194,201.5C 195.319,199.75 195.819,197.75 195.5,195.5C 198.101,194.72 200.101,193.054 201.5,190.5C 202.167,191.5 202.833,192.5 203.5,193.5C 203.689,189.478 205.023,189.478 207.5,193.5C 207.032,195.134 206.032,196.3 204.5,197C 205.5,197.667 206.5,197.667 207.5,197C 208.773,194.807 209.106,192.64 208.5,190.5C 212.775,188.008 213.441,184.841 210.5,181C 212.552,180.07 214.052,178.57 215,176.5C 215.333,177.167 215.667,177.833 216,178.5C 217.253,174.956 219.087,174.623 221.5,177.5C 222.736,176.754 224.07,176.421 225.5,176.5C 225.5,175.167 225.5,173.833 225.5,172.5C 226.833,172.5 228.167,172.5 229.5,172.5C 229.5,171.5 229.5,170.5 229.5,169.5C 230.5,169.5 231.5,169.5 232.5,169.5C 232.263,170.791 232.596,171.791 233.5,172.5C 231.097,182.54 227.597,192.207 223,201.5C 219.513,205.142 216.513,209.142 214,213.5C 210.139,226.28 205.973,238.946 201.5,251.5C 202.524,252.852 203.524,254.185 204.5,255.5C 153.167,255.5 101.833,255.5 50.5,255.5C 52.0423,254.859 53.3757,253.859 54.5,252.5C 50.6655,239.828 46.8322,227.161 43,214.5C 40.294,212.129 37.9606,209.463 36,206.5C 27.393,189.843 21.893,172.176 19.5,153.5C 19.8916,150.151 20.3916,146.817 21,143.5C 23.4776,140.211 25.1442,136.544 26,132.5C 26.4908,121.398 27.8241,110.398 30,99.5C 31.9134,90.9115 35.0801,82.9115 39.5,75.5C 39.3691,76.3764 39.7025,77.0431 40.5,77.5C 42.8773,73.8041 45.2107,70.1375 47.5,66.5 Z"
       id="path6" />
  </g>
  <g
     id="g7">
    <path
       style="opacity:1"
       fill="#38344e"
       d="M 159.5,73.5 C 160.167,73.8333 160.833,74.1667 161.5,74.5C 162.234,75.7079 162.567,77.0413 162.5,78.5C 165.308,78.9695 167.642,80.3028 169.5,82.5C 167.253,83.2446 165.42,84.578 164,86.5C 163.312,87.3317 163.479,87.9984 164.5,88.5C 166.197,87.6364 167.363,86.3031 168,84.5C 171.33,86.4416 175.163,88.275 179.5,90C 178.24,91.113 177.073,91.2797 176,90.5C 174.635,91.5929 174.301,92.9262 175,94.5C 175.626,92.0087 176.459,92.0087 177.5,94.5C 180.37,93.878 183.204,93.2113 186,92.5C 185.138,96.9399 186.804,99.2732 191,99.5C 191.642,101.762 192.475,103.929 193.5,106C 197.853,106.533 198.186,106.199 194.5,105C 196.119,103.077 197.952,102.577 200,103.5C 200.507,104.996 200.007,106.163 198.5,107C 199.357,107.689 200.023,108.522 200.5,109.5C 199.333,111.167 198.167,112.833 197,114.5C 192.926,112.808 188.76,111.308 184.5,110C 174.49,109.59 164.49,109.09 154.5,108.5C 155.598,107.603 155.598,106.77 154.5,106C 155.624,105.751 156.624,105.251 157.5,104.5C 157.333,104.167 157.167,103.833 157,103.5C 154.126,101.109 152.626,101.442 152.5,104.5C 151.325,104.719 150.325,104.386 149.5,103.5C 149.64,101.744 149.14,100.078 148,98.5C 147.333,99.8333 146.667,99.8333 146,98.5C 145.667,96.8333 145.333,95.1667 145,93.5C 144.439,94.0219 143.772,94.3552 143,94.5C 141.832,93.4911 140.665,92.4911 139.5,91.5C 139.598,92.6161 139.098,93.6161 138,94.5C 136.941,94.3699 136.108,93.8699 135.5,93C 136.973,92.2904 137.64,91.1238 137.5,89.5C 134.7,89.8889 132.033,90.3889 129.5,91C 128.577,88.9592 128.244,86.7925 128.5,84.5C 126.077,84.5764 124.244,83.5764 123,81.5C 121.699,82.8932 120.199,83.3932 118.5,83C 118.833,82.6667 119.167,82.3333 119.5,82C 117.109,81.3086 117.109,80.3086 119.5,79C 117.579,78.6397 115.912,77.8064 114.5,76.5C 113.692,76.8076 113.025,77.3076 112.5,78C 115.254,79.5797 115.088,80.7464 112,81.5C 110.131,80.6313 109.631,79.4646 110.5,78C 108.485,77.5757 106.651,76.7424 105,75.5C 102.393,76.7897 101.06,75.7897 101,72.5C 97.0259,74.1951 96.8592,76.5284 100.5,79.5C 99.8333,79.8333 99.1667,80.1667 98.5,80.5C 96.6274,80.5177 96.2941,80.0177 97.5,79C 93.3997,78.2937 90.233,75.7937 88,71.5C 85.7336,75.9893 82.9003,76.4893 79.5,73C 83.2252,69.2919 82.7252,68.7919 78,71.5C 76.7964,70.5294 76.2964,69.5294 76.5,68.5C 74.5841,69.2483 72.5841,69.2483 70.5,68.5C 70.8808,70.9418 70.2141,71.6085 68.5,70.5C 67.1667,71.5 65.8333,72.5 64.5,73.5C 59.5017,72.3864 55.1684,73.7197 51.5,77.5C 50.3045,73.674 48.9711,70.0073 47.5,66.5C 47.3691,65.6236 47.7025,64.9569 48.5,64.5C 49.2164,65.311 50.0497,65.9777 51,66.5C 52.8352,64.916 54.8352,63.5827 57,62.5C 57.3333,63.5 57.6667,64.5 58,65.5C 61.0115,61.9598 62.8448,62.2931 63.5,66.5C 65.321,65.2723 66.321,63.6056 66.5,61.5C 68.1992,61.3398 69.8659,61.5065 71.5,62C 70.3044,62.6543 70.3044,63.1543 71.5,63.5C 72.1924,62.9747 72.6924,62.3081 73,61.5C 73.8928,62.7112 74.7261,62.7112 75.5,61.5C 74.9747,60.8076 74.3081,60.3076 73.5,60C 74.7659,59.6905 75.9326,59.1905 77,58.5C 79.0748,59.8952 80.9081,59.5619 82.5,57.5C 83.8932,59.6741 83.5598,61.5074 81.5,63C 82.8989,63.5946 84.2322,63.4279 85.5,62.5C 86.9828,64.9458 88.1495,64.6124 89,61.5C 91.8107,64.3171 91.644,66.4838 88.5,68C 89.6667,68.5 90.5,69.3333 91,70.5C 91.3333,69.8333 91.6667,69.1667 92,68.5C 93.3333,69.8333 94.6667,69.8333 96,68.5C 96.3333,69.1667 96.6667,69.8333 97,70.5C 98.3431,69.7865 99.6764,70.1198 101,71.5C 101.772,70.1509 102.939,69.3176 104.5,69C 102.993,68.1627 102.493,66.9961 103,65.5C 104.684,67.2396 106.518,68.4063 108.5,69C 107.55,66.5679 107.55,64.0679 108.5,61.5C 112.566,62.7096 116.566,64.2096 120.5,66C 121.047,66.9246 121.713,67.7579 122.5,68.5C 124.354,66.4645 126.187,66.7978 128,69.5C 132.518,68.3361 136.018,69.8361 138.5,74C 137.978,74.5613 137.645,75.228 137.5,76C 138.482,78.0092 139.815,78.5092 141.5,77.5C 140.624,76.7492 139.624,76.2492 138.5,76C 141.819,74.1364 144.486,74.9697 146.5,78.5C 147.5,77.8333 148.5,77.1667 149.5,76.5C 150.833,77.8333 152.167,77.8333 153.5,76.5C 156.095,78.1594 158.762,78.4928 161.5,77.5C 160.313,76.4805 159.313,75.3139 158.5,74C 158.728,73.6012 159.062,73.4346 159.5,73.5 Z"
       id="path7" />
  </g>
  <g
     id="g8">
    <path
       style="opacity:1"
       fill="#292443"
       d="M 206.5,164.5 C 204.713,168.075 202.879,171.741 201,175.5C 199.693,177.192 198.193,178.525 196.5,179.5C 197.997,176.373 198.997,173.04 199.5,169.5C 204.466,158.178 205.799,146.512 203.5,134.5C 203.109,128.709 200.442,124.376 195.5,121.5C 194.833,121.5 194.5,121.167 194.5,120.5C 186.706,116.808 178.373,115.141 169.5,115.5C 137.95,113.843 106.283,114.343 74.5,117C 70.4202,117.755 66.7536,119.255 63.5,121.5C 59.4351,123.233 56.7684,126.233 55.5,130.5C 52.9103,134.693 51.9103,139.36 52.5,144.5C 51.2509,155.625 54.2509,165.291 61.5,173.5C 63.6956,177.047 66.6956,179.381 70.5,180.5C 81.6637,181.26 92.9971,181.26 104.5,180.5C 106.262,180.357 107.929,180.691 109.5,181.5C 115.157,179.748 120.991,178.748 127,178.5C 129.775,178.409 132.275,179.076 134.5,180.5C 115.995,182.253 97.3282,183.92 78.5,185.5C 73.357,185.505 68.357,184.671 63.5,183C 53.1412,173.106 48.1412,160.939 48.5,146.5C 47.4133,131.996 53.08,121.33 65.5,114.5C 70.4098,113.26 75.4098,112.427 80.5,112C 112.82,110.507 145.153,110.173 177.5,111C 183.374,111.436 189.04,112.769 194.5,115C 197.539,116.031 200.039,117.865 202,120.5C 206.824,128.277 208.991,136.777 208.5,146C 208.514,152.253 207.847,158.42 206.5,164.5 Z"
       id="path8" />
  </g>
  <g
     id="g9">
    <path
       style="opacity:1"
       fill="#8a605d"
       d="M 110.5,116.5 C 129.993,115.503 149.66,115.17 169.5,115.5C 178.373,115.141 186.706,116.808 194.5,120.5C 188.082,119.978 181.748,118.978 175.5,117.5C 154.006,116.503 132.34,116.169 110.5,116.5 Z"
       id="path9" />
  </g>
  <g
     id="g10">
    <path
       style="opacity:1"
       fill="#714f54"
       d="M 169.5,115.5 C 149.66,115.17 129.993,115.503 110.5,116.5C 94.6383,116.548 78.9717,118.214 63.5,121.5C 66.7536,119.255 70.4202,117.755 74.5,117C 106.283,114.343 137.95,113.843 169.5,115.5 Z"
       id="path10" />
  </g>
  <g
     id="g11">
    <path
       style="opacity:1"
       fill="#9c6c65"
       d="M 110.5,116.5 C 132.34,116.169 154.006,116.503 175.5,117.5C 171.445,117.176 167.445,117.509 163.5,118.5C 163.434,121.3 163.434,124.133 163.5,127C 162.256,127.456 161.423,126.956 161,125.5C 159.28,128.095 156.78,129.595 153.5,130C 153.833,130.333 154.167,130.667 154.5,131C 153.234,131.309 152.067,131.809 151,132.5C 150.667,132.167 150.333,131.833 150,131.5C 149.626,132.416 149.126,133.25 148.5,134C 152.152,135.001 155.819,136.167 159.5,137.5C 161.359,136.31 163.192,136.31 165,137.5C 166.605,136.899 167.938,135.899 169,134.5C 169.483,135.448 169.649,136.448 169.5,137.5C 172.208,136.551 174.874,136.551 177.5,137.5C 177.058,138.739 176.391,139.739 175.5,140.5C 175.565,140.062 175.399,139.728 175,139.5C 165.496,142.333 155.829,144.333 146,145.5C 144.53,144.733 143.03,144.067 141.5,143.5C 139.81,142.897 138.31,141.897 137,140.5C 135.672,142.022 135.838,143.689 137.5,145.5C 136.5,147.833 134.833,149.5 132.5,150.5C 129.273,150.345 125.94,150.178 122.5,150C 120.497,148.181 119.164,146.015 118.5,143.5C 117.209,143.263 116.209,143.596 115.5,144.5C 113.757,145.086 111.924,145.419 110,145.5C 99.2595,144.315 88.5929,142.648 78,140.5C 74.2798,140.294 71.1131,141.461 68.5,144C 69.0944,144.464 69.7611,144.631 70.5,144.5C 76.5536,143.856 78.7203,146.523 77,152.5C 74.302,155.635 71.302,157.635 68,158.5C 67.2254,163.345 68.3921,167.678 71.5,171.5C 70.9537,173.135 70.6204,174.801 70.5,176.5C 67.1973,176.31 64.1973,175.31 61.5,173.5C 54.2509,165.291 51.2509,155.625 52.5,144.5C 53.3337,139.9 54.3337,135.234 55.5,130.5C 56.7684,126.233 59.4351,123.233 63.5,121.5C 78.9717,118.214 94.6383,116.548 110.5,116.5 Z"
       id="path11" />
  </g>
  <g
     id="g12">
    <path
       style="opacity:1"
       fill="#3f3b56"
       d="M 216.5,96.5 C 218.331,97.0522 219.997,97.0522 221.5,96.5C 222.767,99.949 223.767,103.449 224.5,107C 223.507,110.324 224.673,113.491 228,116.5C 228.667,121.5 228.667,126.5 228,131.5C 227.5,132 227,132.5 226.5,133C 227.05,134.845 228.05,136.345 229.5,137.5C 230.474,135.257 230.808,132.924 230.5,130.5C 231.755,134.343 233.588,138.01 236,141.5C 236.49,142.793 236.657,144.127 236.5,145.5C 236.5,148.167 236.5,150.833 236.5,153.5C 232.905,154.553 229.238,154.553 225.5,153.5C 224.928,156.977 224.928,160.311 225.5,163.5C 224.926,165.059 224.26,166.559 223.5,168C 223.833,168.333 224.167,168.667 224.5,169C 222.965,169.496 221.465,169.33 220,168.5C 219.055,168.905 218.388,169.572 218,170.5C 217.316,169.216 217.483,168.049 218.5,167C 215.882,164.261 213.382,161.427 211,158.5C 210.333,159.833 209.667,159.833 209,158.5C 208.76,160.852 207.927,162.852 206.5,164.5C 207.847,158.42 208.514,152.253 208.5,146C 208.991,136.777 206.824,128.277 202,120.5C 200.039,117.865 197.539,116.031 194.5,115C 189.04,112.769 183.374,111.436 177.5,111C 145.153,110.173 112.82,110.507 80.5,112C 75.4098,112.427 70.4098,113.26 65.5,114.5C 66.842,113.207 68.5087,112.374 70.5,112C 98.425,109.268 126.425,108.101 154.5,108.5C 164.49,109.09 174.49,109.59 184.5,110C 188.76,111.308 192.926,112.808 197,114.5C 198.167,112.833 199.333,111.167 200.5,109.5C 200.023,108.522 199.357,107.689 198.5,107C 200.007,106.163 200.507,104.996 200,103.5C 197.952,102.577 196.119,103.077 194.5,105C 198.186,106.199 197.853,106.533 193.5,106C 192.475,103.929 191.642,101.762 191,99.5C 186.804,99.2732 185.138,96.9399 186,92.5C 183.204,93.2113 180.37,93.878 177.5,94.5C 176.459,92.0087 175.626,92.0087 175,94.5C 174.301,92.9262 174.635,91.5929 176,90.5C 177.073,91.2797 178.24,91.113 179.5,90C 175.163,88.275 171.33,86.4416 168,84.5C 167.363,86.3031 166.197,87.6364 164.5,88.5C 163.479,87.9984 163.312,87.3317 164,86.5C 165.42,84.578 167.253,83.2446 169.5,82.5C 167.642,80.3028 165.308,78.9695 162.5,78.5C 162.567,77.0413 162.234,75.7079 161.5,74.5C 163.118,70.8731 165.118,70.7064 167.5,74C 166.747,75.487 165.914,75.6537 165,74.5C 164.517,75.448 164.351,76.448 164.5,77.5C 167.723,77.5127 171.056,77.1794 174.5,76.5C 176.615,77.0787 178.615,77.9121 180.5,79C 179.903,80.6256 179.903,82.459 180.5,84.5C 181.167,83.8333 181.833,83.1667 182.5,82.5C 184.042,83.7468 185.542,83.7468 187,82.5C 187.934,85.9648 189.434,86.2981 191.5,83.5C 193.76,85.3597 196.26,85.3597 199,83.5C 199.333,83.8333 199.667,84.1667 200,84.5C 200.456,83.2559 199.956,82.4226 198.5,82C 199.766,81.6905 200.933,81.1905 202,80.5C 202.667,84.5 203.333,84.5 204,80.5C 204.155,82.856 204.155,85.1893 204,87.5C 204.333,88.1667 204.667,88.8333 205,89.5C 205.974,87.1224 206.641,87.4557 207,90.5C 207.667,89.1667 208.333,89.1667 209,90.5C 209.21,91.8029 209.043,93.1362 208.5,94.5C 209.514,98.1874 211.181,98.8541 213.5,96.5C 214.527,97.7914 215.527,97.7914 216.5,96.5 Z"
       id="path12" />
  </g>
  <g
     id="g13">
    <path
       style="opacity:1"
       fill="#ac7870"
       d="M 175.5,117.5 C 181.748,118.978 188.082,119.978 194.5,120.5C 194.5,121.167 194.833,121.5 195.5,121.5C 198.067,125.253 199.4,129.253 199.5,133.5C 198.96,134.748 198.293,135.915 197.5,137C 199.004,138.491 199.837,140.324 200,142.5C 200.333,141.5 200.667,140.5 201,139.5C 201.273,141.101 201.773,142.601 202.5,144C 202.46,148.039 202.127,152.206 201.5,156.5C 199.876,156.64 198.71,155.973 198,154.5C 197.206,150.45 196.206,146.45 195,142.5C 191.844,140.343 189.011,137.843 186.5,135C 185.056,134.219 183.723,134.386 182.5,135.5C 181.828,137.16 180.828,138.493 179.5,139.5C 178.167,141.167 176.833,142.833 175.5,144.5C 174.662,144.158 174.328,143.492 174.5,142.5C 174.833,141.833 175.167,141.167 175.5,140.5C 176.391,139.739 177.058,138.739 177.5,137.5C 174.874,136.551 172.208,136.551 169.5,137.5C 169.649,136.448 169.483,135.448 169,134.5C 167.938,135.899 166.605,136.899 165,137.5C 163.192,136.31 161.359,136.31 159.5,137.5C 155.819,136.167 152.152,135.001 148.5,134C 149.126,133.25 149.626,132.416 150,131.5C 150.333,131.833 150.667,132.167 151,132.5C 152.067,131.809 153.234,131.309 154.5,131C 154.167,130.667 153.833,130.333 153.5,130C 156.78,129.595 159.28,128.095 161,125.5C 161.423,126.956 162.256,127.456 163.5,127C 163.434,124.133 163.434,121.3 163.5,118.5C 167.445,117.509 171.445,117.176 175.5,117.5 Z"
       id="path13" />
  </g>
  <g
     id="g14">
    <path
       style="opacity:1"
       fill="#725154"
       d="M 55.5,130.5 C 54.3337,135.234 53.3337,139.9 52.5,144.5C 51.9103,139.36 52.9103,134.693 55.5,130.5 Z"
       id="path14" />
  </g>
  <g
     id="g15">
    <path
       style="opacity:1"
       fill="#a06f68"
       d="M 195.5,121.5 C 200.442,124.376 203.109,128.709 203.5,134.5C 203.666,141.841 203.5,149.174 203,156.5C 201.149,159.838 198.315,161.171 194.5,160.5C 195.057,155.606 195.057,151.106 194.5,147C 193.115,145.351 191.449,144.184 189.5,143.5C 187.298,139.906 183.965,138.572 179.5,139.5C 180.828,138.493 181.828,137.16 182.5,135.5C 183.723,134.386 185.056,134.219 186.5,135C 189.011,137.843 191.844,140.343 195,142.5C 196.206,146.45 197.206,150.45 198,154.5C 198.71,155.973 199.876,156.64 201.5,156.5C 202.127,152.206 202.46,148.039 202.5,144C 201.773,142.601 201.273,141.101 201,139.5C 200.667,140.5 200.333,141.5 200,142.5C 199.837,140.324 199.004,138.491 197.5,137C 198.293,135.915 198.96,134.748 199.5,133.5C 199.4,129.253 198.067,125.253 195.5,121.5 Z"
       id="path15" />
  </g>
  <g
     id="g16">
    <path
       style="opacity:1"
       fill="#422d1b"
       d="M 179.5,139.5 C 183.965,138.572 187.298,139.906 189.5,143.5C 184.647,142.026 179.98,142.359 175.5,144.5C 176.833,142.833 178.167,141.167 179.5,139.5 Z"
       id="path16" />
  </g>
  <g
     id="g17">
    <path
       style="opacity:1"
       fill="#2f2008"
       d="M 115.5,144.5 C 116.693,144.97 117.36,145.97 117.5,147.5C 117.66,149.355 116.993,150.688 115.5,151.5C 107.977,151.616 100.644,150.616 93.5,148.5C 85.9099,145.577 78.2432,144.243 70.5,144.5C 69.7611,144.631 69.0944,144.464 68.5,144C 71.1131,141.461 74.2798,140.294 78,140.5C 88.5929,142.648 99.2595,144.315 110,145.5C 111.924,145.419 113.757,145.086 115.5,144.5 Z"
       id="path17" />
  </g>
  <g
     id="g18">
    <path
       style="opacity:1"
       fill="#93655e"
       d="M 203.5,134.5 C 205.799,146.512 204.466,158.178 199.5,169.5C 191.664,179.338 181.664,182.671 169.5,179.5C 170.873,179.657 172.207,179.49 173.5,179C 172.09,178.632 171.09,177.799 170.5,176.5C 174.122,175.675 177.789,175.175 181.5,175C 185.275,173.133 186.608,170.3 185.5,166.5C 185.64,164.876 184.973,163.71 183.5,163C 183.833,162.667 184.167,162.333 184.5,162C 182.362,162.559 180.362,162.392 178.5,161.5C 183.68,160.596 184.68,158.096 181.5,154C 180.251,153.26 179.251,153.427 178.5,154.5C 177.609,153.89 176.609,153.557 175.5,153.5C 173.833,153.5 172.167,153.5 170.5,153.5C 167.109,153.703 164.109,152.703 161.5,150.5C 164.25,149.125 166.916,147.792 169.5,146.5C 171.142,145.197 172.809,143.864 174.5,142.5C 174.328,143.492 174.662,144.158 175.5,144.5C 179.98,142.359 184.647,142.026 189.5,143.5C 191.449,144.184 193.115,145.351 194.5,147C 195.057,151.106 195.057,155.606 194.5,160.5C 198.315,161.171 201.149,159.838 203,156.5C 203.5,149.174 203.666,141.841 203.5,134.5 Z"
       id="path18" />
  </g>
  <g
     id="g19">
    <path
       style="opacity:1"
       fill="#30210b"
       d="M 175.5,140.5 C 175.167,141.167 174.833,141.833 174.5,142.5C 172.809,143.864 171.142,145.197 169.5,146.5C 160.64,148.814 151.64,150.481 142.5,151.5C 140.984,149.801 139.984,147.801 139.5,145.5C 139.747,144.287 140.414,143.62 141.5,143.5C 143.03,144.067 144.53,144.733 146,145.5C 155.829,144.333 165.496,142.333 175,139.5C 175.399,139.728 175.565,140.062 175.5,140.5 Z"
       id="path19" />
  </g>
  <g
     id="g20">
    <path
       style="opacity:1"
       fill="#8c5e56"
       d="M 70.5,144.5 C 78.2432,144.243 85.9099,145.577 93.5,148.5C 94.6774,150.032 96.0107,151.532 97.5,153C 93.9743,154.337 90.3076,154.837 86.5,154.5C 85.1667,154.5 83.8333,154.5 82.5,154.5C 81.5,154.5 80.5,154.5 79.5,154.5C 74.8714,155.084 73.2047,157.417 74.5,161.5C 75.209,162.404 76.209,162.737 77.5,162.5C 77.5,160.833 77.5,159.167 77.5,157.5C 77.8333,157.5 78.1667,157.5 78.5,157.5C 78.5,159.5 78.5,161.5 78.5,163.5C 79.5,163.5 80.5,163.5 81.5,163.5C 84.1667,164.167 86.8333,164.833 89.5,165.5C 84.7464,165.545 80.0798,165.378 75.5,165C 76.2266,166.399 76.7266,167.899 77,169.5C 80.8959,171.107 84.2293,173.441 87,176.5C 87.4696,177.577 87.3029,178.577 86.5,179.5C 81.2599,180.449 75.9265,180.782 70.5,180.5C 66.6956,179.381 63.6956,177.047 61.5,173.5C 64.1973,175.31 67.1973,176.31 70.5,176.5C 70.6204,174.801 70.9537,173.135 71.5,171.5C 68.3921,167.678 67.2254,163.345 68,158.5C 71.302,157.635 74.302,155.635 77,152.5C 78.7203,146.523 76.5536,143.856 70.5,144.5 Z"
       id="path20" />
  </g>
  <g
     id="g21">
    <path
       style="opacity:1"
       fill="#754d45"
       d="M 169.5,146.5 C 166.916,147.792 164.25,149.125 161.5,150.5C 164.109,152.703 167.109,153.703 170.5,153.5C 169.167,154.167 167.833,154.833 166.5,155.5C 165.167,155.5 163.833,155.5 162.5,155.5C 158.367,156.56 157.701,158.56 160.5,161.5C 161.172,160.051 161.839,158.718 162.5,157.5C 162.5,159.167 162.5,160.833 162.5,162.5C 163.5,162.5 164.5,162.5 165.5,162.5C 168.5,162.5 171.5,162.5 174.5,162.5C 172.031,163.317 169.365,163.817 166.5,164C 170.313,165.262 174.313,165.929 178.5,166C 173.983,169.454 168.983,170.288 163.5,168.5C 158.701,166.185 154.701,163.018 151.5,159C 152.253,157.513 153.086,157.346 154,158.5C 154.402,157.128 154.902,155.795 155.5,154.5C 154.5,153.167 153.5,153.167 152.5,154.5C 150.482,156.35 148.649,158.35 147,160.5C 146.76,158.023 147.594,155.856 149.5,154C 147.073,153.098 144.74,152.264 142.5,151.5C 151.64,150.481 160.64,148.814 169.5,146.5 Z"
       id="path21" />
  </g>
  <g
     id="g22">
    <path
       style="opacity:1"
       fill="#050301"
       d="M 170.5,153.5 C 172.167,153.5 173.833,153.5 175.5,153.5C 176.734,156.465 176.734,159.465 175.5,162.5C 175.167,162.5 174.833,162.5 174.5,162.5C 171.5,162.5 168.5,162.5 165.5,162.5C 164.062,159.917 164.396,157.583 166.5,155.5C 167.833,154.833 169.167,154.167 170.5,153.5 Z"
       id="path22" />
  </g>
  <g
     id="g23">
    <path
       style="opacity:1"
       fill="#040200"
       d="M 82.5,154.5 C 83.8333,154.5 85.1667,154.5 86.5,154.5C 87.9187,155.451 89.5853,155.784 91.5,155.5C 93.6502,157.922 93.9835,160.589 92.5,163.5C 88.8333,163.5 85.1667,163.5 81.5,163.5C 79.9854,160.263 80.3187,157.263 82.5,154.5 Z"
       id="path23" />
  </g>
  <g
     id="g24">
    <path
       style="opacity:1"
       fill="#b1a3a1"
       d="M 79.5,154.5 C 79.4431,155.609 79.1098,156.609 78.5,157.5C 78.1667,157.5 77.8333,157.5 77.5,157.5C 76.6715,156.668 75.8382,157.001 75,158.5C 74.5172,159.448 74.3505,160.448 74.5,161.5C 73.2047,157.417 74.8714,155.084 79.5,154.5 Z"
       id="path24" />
  </g>
  <g
     id="g25">
    <path
       style="opacity:1"
       fill="#281e0e"
       d="M 162.5,155.5 C 163.833,155.5 165.167,155.5 166.5,155.5C 164.396,157.583 164.062,159.917 165.5,162.5C 164.5,162.5 163.5,162.5 162.5,162.5C 162.5,160.833 162.5,159.167 162.5,157.5C 162.5,156.833 162.5,156.167 162.5,155.5 Z"
       id="path25" />
  </g>
  <g
     id="g26">
    <path
       style="opacity:1"
       fill="#b4a6a5"
       d="M 178.5,161.5 C 178.5,161.167 178.5,160.833 178.5,160.5C 178.5,158.5 178.5,156.5 178.5,154.5C 179.251,153.427 180.251,153.26 181.5,154C 184.68,158.096 183.68,160.596 178.5,161.5 Z"
       id="path26" />
  </g>
  <g
     id="g27">
    <path
       style="opacity:1"
       fill="#a49c9b"
       d="M 162.5,155.5 C 162.5,156.167 162.5,156.833 162.5,157.5C 161.839,158.718 161.172,160.051 160.5,161.5C 157.701,158.56 158.367,156.56 162.5,155.5 Z"
       id="path27" />
  </g>
  <g
     id="g28">
    <path
       style="opacity:1"
       fill="#c8c2c3"
       d="M 77.5,157.5 C 77.5,159.167 77.5,160.833 77.5,162.5C 76.209,162.737 75.209,162.404 74.5,161.5C 74.3505,160.448 74.5172,159.448 75,158.5C 75.8382,157.001 76.6715,156.668 77.5,157.5 Z"
       id="path28" />
  </g>
  <g
     id="g29">
    <path
       style="opacity:1"
       fill="#9f6d65"
       d="M 140.5,164.5 C 139.957,164.56 139.624,164.893 139.5,165.5C 142.808,169.904 146.975,173.238 152,175.5C 152.188,177.061 151.355,177.728 149.5,177.5C 146.5,177.5 143.5,177.5 140.5,177.5C 133.167,177.5 125.833,177.5 118.5,177.5C 119.568,176.566 120.901,176.232 122.5,176.5C 122.523,174.4 121.856,172.567 120.5,171C 120.815,166.613 121.815,162.447 123.5,158.5C 123.167,157.833 122.833,157.167 122.5,156.5C 127,154.617 131.667,154.117 136.5,155C 139.963,157.195 141.296,160.361 140.5,164.5 Z"
       id="path29" />
  </g>
  <g
     id="g30">
    <path
       style="opacity:1"
       fill="#2a1e0e"
       d="M 79.5,154.5 C 80.5,154.5 81.5,154.5 82.5,154.5C 80.3187,157.263 79.9854,160.263 81.5,163.5C 80.5,163.5 79.5,163.5 78.5,163.5C 78.5,161.5 78.5,159.5 78.5,157.5C 79.1098,156.609 79.4431,155.609 79.5,154.5 Z"
       id="path30" />
  </g>
  <g
     id="g31">
    <path
       style="opacity:1"
       fill="#a19698"
       d="M 95.5,156.5 C 98.4841,156.787 99.8174,158.454 99.5,161.5C 98.5,161.5 97.5,161.5 96.5,161.5C 96.7373,160.209 96.404,159.209 95.5,158.5C 95.5,157.833 95.5,157.167 95.5,156.5 Z"
       id="path31" />
  </g>
  <g
     id="g32">
    <path
       style="opacity:1"
       fill="#312414"
       d="M 175.5,153.5 C 176.609,153.557 177.609,153.89 178.5,154.5C 178.5,156.5 178.5,158.5 178.5,160.5C 177.778,161.551 176.778,162.218 175.5,162.5C 176.734,159.465 176.734,156.465 175.5,153.5 Z"
       id="path32" />
  </g>
  <g
     id="g33">
    <path
       style="opacity:1"
       fill="#332514"
       d="M 91.5,155.5 C 92.9587,155.433 94.2921,155.766 95.5,156.5C 95.5,157.167 95.5,157.833 95.5,158.5C 95.5,160.167 95.5,161.833 95.5,163.5C 94.5,163.5 93.5,163.5 92.5,163.5C 93.9835,160.589 93.6502,157.922 91.5,155.5 Z"
       id="path33" />
  </g>
  <g
     id="g34">
    <path
       style="opacity:1"
       fill="#784d44"
       d="M 93.5,148.5 C 100.644,150.616 107.977,151.616 115.5,151.5C 114.5,152.167 113.5,152.833 112.5,153.5C 109.12,153.179 108.287,154.179 110,156.5C 110.667,158.5 110.667,160.5 110,162.5C 109.086,158.815 108.419,159.148 108,163.5C 107.784,161.616 107.117,159.949 106,158.5C 105.764,160.764 105.264,162.931 104.5,165C 100.095,165.764 96.0952,167.431 92.5,170C 87.3063,171.242 82.6397,170.242 78.5,167C 82.3563,166.823 86.023,166.323 89.5,165.5C 86.8333,164.833 84.1667,164.167 81.5,163.5C 85.1667,163.5 88.8333,163.5 92.5,163.5C 93.5,163.5 94.5,163.5 95.5,163.5C 95.5,161.833 95.5,160.167 95.5,158.5C 96.404,159.209 96.7373,160.209 96.5,161.5C 97.5,161.5 98.5,161.5 99.5,161.5C 99.8174,158.454 98.4841,156.787 95.5,156.5C 94.2921,155.766 92.9587,155.433 91.5,155.5C 89.5853,155.784 87.9187,155.451 86.5,154.5C 90.3076,154.837 93.9743,154.337 97.5,153C 96.0107,151.532 94.6774,150.032 93.5,148.5 Z"
       id="path34" />
  </g>
  <g
     id="g35">
    <path
       style="opacity:1"
       fill="#8a5b53"
       d="M 141.5,143.5 C 140.414,143.62 139.747,144.287 139.5,145.5C 139.984,147.801 140.984,149.801 142.5,151.5C 144.74,152.264 147.073,153.098 149.5,154C 147.594,155.856 146.76,158.023 147,160.5C 148.649,158.35 150.482,156.35 152.5,154.5C 153.5,153.167 154.5,153.167 155.5,154.5C 154.902,155.795 154.402,157.128 154,158.5C 153.086,157.346 152.253,157.513 151.5,159C 154.701,163.018 158.701,166.185 163.5,168.5C 168.983,170.288 173.983,169.454 178.5,166C 174.313,165.929 170.313,165.262 166.5,164C 169.365,163.817 172.031,163.317 174.5,162.5C 174.833,162.5 175.167,162.5 175.5,162.5C 176.778,162.218 177.778,161.551 178.5,160.5C 178.5,160.833 178.5,161.167 178.5,161.5C 180.362,162.392 182.362,162.559 184.5,162C 184.167,162.333 183.833,162.667 183.5,163C 184.973,163.71 185.64,164.876 185.5,166.5C 185.207,168.586 183.707,170.252 181,171.5C 171.468,171.062 162.135,171.062 153,171.5C 151.715,171.05 150.548,170.383 149.5,169.5C 148.549,170.326 147.549,170.492 146.5,170C 143.977,168.64 141.977,166.807 140.5,164.5C 141.296,160.361 139.963,157.195 136.5,155C 131.667,154.117 127,154.617 122.5,156.5C 122.833,157.167 123.167,157.833 123.5,158.5C 121.815,162.447 120.815,166.613 120.5,171C 121.856,172.567 122.523,174.4 122.5,176.5C 120.901,176.232 119.568,176.566 118.5,177.5C 113.939,178.811 109.272,179.478 104.5,179.5C 102.167,179.5 99.8333,179.5 97.5,179.5C 99.5994,178.388 101.933,177.721 104.5,177.5C 104.5,176.5 104.5,175.5 104.5,174.5C 108.022,172.112 111.689,170.612 115.5,170C 115.13,165.354 113.797,161.021 111.5,157C 111.989,155.862 112.322,154.695 112.5,153.5C 113.5,152.833 114.5,152.167 115.5,151.5C 116.993,150.688 117.66,149.355 117.5,147.5C 117.36,145.97 116.693,144.97 115.5,144.5C 116.209,143.596 117.209,143.263 118.5,143.5C 119.164,146.015 120.497,148.181 122.5,150C 125.94,150.178 129.273,150.345 132.5,150.5C 134.833,149.5 136.5,147.833 137.5,145.5C 135.838,143.689 135.672,142.022 137,140.5C 138.31,141.897 139.81,142.897 141.5,143.5 Z"
       id="path35" />
  </g>
  <g
     id="g36">
    <path
       style="opacity:1"
       fill="#946157"
       d="M 140.5,164.5 C 141.977,166.807 143.977,168.64 146.5,170C 147.549,170.492 148.549,170.326 149.5,169.5C 150.548,170.383 151.715,171.05 153,171.5C 162.135,171.062 171.468,171.062 181,171.5C 183.707,170.252 185.207,168.586 185.5,166.5C 186.608,170.3 185.275,173.133 181.5,175C 177.789,175.175 174.122,175.675 170.5,176.5C 171.09,177.799 172.09,178.632 173.5,179C 172.207,179.49 170.873,179.657 169.5,179.5C 162.833,178.833 156.167,178.167 149.5,177.5C 151.355,177.728 152.188,177.061 152,175.5C 146.975,173.238 142.808,169.904 139.5,165.5C 139.624,164.893 139.957,164.56 140.5,164.5 Z"
       id="path36" />
  </g>
  <g
     id="g37">
    <path
       style="opacity:1"
       fill="#83544b"
       d="M 112.5,153.5 C 112.322,154.695 111.989,155.862 111.5,157C 113.797,161.021 115.13,165.354 115.5,170C 111.689,170.612 108.022,172.112 104.5,174.5C 104.5,175.5 104.5,176.5 104.5,177.5C 101.933,177.721 99.5994,178.388 97.5,179.5C 93.8333,179.5 90.1667,179.5 86.5,179.5C 87.3029,178.577 87.4696,177.577 87,176.5C 84.2293,173.441 80.8959,171.107 77,169.5C 76.7266,167.899 76.2266,166.399 75.5,165C 80.0798,165.378 84.7464,165.545 89.5,165.5C 86.023,166.323 82.3563,166.823 78.5,167C 82.6397,170.242 87.3063,171.242 92.5,170C 96.0952,167.431 100.095,165.764 104.5,165C 105.264,162.931 105.764,160.764 106,158.5C 107.117,159.949 107.784,161.616 108,163.5C 108.419,159.148 109.086,158.815 110,162.5C 110.667,160.5 110.667,158.5 110,156.5C 108.287,154.179 109.12,153.179 112.5,153.5 Z"
       id="path37" />
  </g>
  <g
     id="g38">
    <path
       style="opacity:1"
       fill="#78555d"
       d="M 86.5,179.5 C 90.1667,179.5 93.8333,179.5 97.5,179.5C 99.8333,179.5 102.167,179.5 104.5,179.5C 104.5,179.833 104.5,180.167 104.5,180.5C 92.9971,181.26 81.6637,181.26 70.5,180.5C 75.9265,180.782 81.2599,180.449 86.5,179.5 Z"
       id="path38" />
  </g>
  <g
     id="g39">
    <path
       style="opacity:1"
       fill="#36324c"
       d="M 236.5,145.5 C 238.017,154.639 237.017,163.639 233.5,172.5C 232.596,171.791 232.263,170.791 232.5,169.5C 231.5,169.5 230.5,169.5 229.5,169.5C 229.5,170.5 229.5,171.5 229.5,172.5C 228.167,172.5 226.833,172.5 225.5,172.5C 225.5,173.833 225.5,175.167 225.5,176.5C 224.07,176.421 222.736,176.754 221.5,177.5C 219.087,174.623 217.253,174.956 216,178.5C 215.667,177.833 215.333,177.167 215,176.5C 214.052,178.57 212.552,180.07 210.5,181C 213.441,184.841 212.775,188.008 208.5,190.5C 209.106,192.64 208.773,194.807 207.5,197C 206.5,197.667 205.5,197.667 204.5,197C 206.032,196.3 207.032,195.134 207.5,193.5C 205.023,189.478 203.689,189.478 203.5,193.5C 202.833,192.5 202.167,191.5 201.5,190.5C 200.101,193.054 198.101,194.72 195.5,195.5C 195.819,197.75 195.319,199.75 194,201.5C 193.499,198.333 191.833,195.999 189,194.5C 188.667,194.833 188.333,195.167 188,195.5C 186.35,194.109 185.85,192.609 186.5,191C 184.718,190.186 183.218,189.019 182,187.5C 180.176,188.474 178.01,189.641 175.5,191C 174.257,192.154 173.257,193.488 172.5,195C 173.902,196.342 173.569,197.176 171.5,197.5C 166.837,196.71 164.837,194.21 165.5,190C 164.584,189.626 163.75,189.126 163,188.5C 161.736,190.607 159.903,191.607 157.5,191.5C 157.649,192.552 157.483,193.552 157,194.5C 154.352,196.284 151.685,197.95 149,199.5C 147.284,199.589 145.451,199.256 143.5,198.5C 142.377,200.289 141.044,200.622 139.5,199.5C 145.071,193.937 143.738,190.604 135.5,189.5C 135.739,187.533 135.406,185.699 134.5,184C 145.501,183.722 156.501,183.889 167.5,184.5C 176.226,184.839 184.893,184.339 193.5,183C 194.71,181.961 195.71,180.794 196.5,179.5C 198.193,178.525 199.693,177.192 201,175.5C 202.879,171.741 204.713,168.075 206.5,164.5C 207.927,162.852 208.76,160.852 209,158.5C 209.667,159.833 210.333,159.833 211,158.5C 213.382,161.427 215.882,164.261 218.5,167C 217.483,168.049 217.316,169.216 218,170.5C 218.388,169.572 219.055,168.905 220,168.5C 221.465,169.33 222.965,169.496 224.5,169C 224.167,168.667 223.833,168.333 223.5,168C 224.26,166.559 224.926,165.059 225.5,163.5C 224.928,160.311 224.928,156.977 225.5,153.5C 229.238,154.553 232.905,154.553 236.5,153.5C 236.5,150.833 236.5,148.167 236.5,145.5 Z"
       id="path39" />
  </g>
  <g
     id="g40">
    <path
       style="opacity:1"
       fill="#352d4d"
       d="M 199.5,169.5 C 198.997,173.04 197.997,176.373 196.5,179.5C 195.71,180.794 194.71,181.961 193.5,183C 184.893,184.339 176.226,184.839 167.5,184.5C 156.478,182.65 145.478,181.317 134.5,180.5C 132.275,179.076 129.775,178.409 127,178.5C 120.991,178.748 115.157,179.748 109.5,181.5C 107.929,180.691 106.262,180.357 104.5,180.5C 104.5,180.167 104.5,179.833 104.5,179.5C 109.272,179.478 113.939,178.811 118.5,177.5C 125.833,177.5 133.167,177.5 140.5,177.5C 141.952,178.302 143.618,178.802 145.5,179C 153.493,179.5 161.493,179.666 169.5,179.5C 181.664,182.671 191.664,179.338 199.5,169.5 Z"
       id="path40" />
  </g>
  <g
     id="g41">
    <path
       style="opacity:1"
       fill="#7f5959"
       d="M 140.5,177.5 C 143.5,177.5 146.5,177.5 149.5,177.5C 156.167,178.167 162.833,178.833 169.5,179.5C 161.493,179.666 153.493,179.5 145.5,179C 143.618,178.802 141.952,178.302 140.5,177.5 Z"
       id="path41" />
  </g>
</svg>
